<svg preserveAspectRatio="none" width="100%" height="100%" overflow="visible" style="display: block;" viewBox="0 0 11.5482 10" fill="none" xmlns="http://www.w3.org/2000/svg">
<g id="ClosedCaptioning">
<path id="Vector" d="M10.1047 1.875H1.44353C1.2521 1.875 1.06852 1.94085 0.933164 2.05806C0.797807 2.17527 0.721764 2.33424 0.721764 2.5V7.5C0.721764 7.66576 0.797807 7.82473 0.933164 7.94194C1.06852 8.05915 1.2521 8.125 1.44353 8.125H10.1047C10.2961 8.125 10.4797 8.05915 10.6151 7.94194C10.7504 7.82473 10.8265 7.66576 10.8265 7.5V2.5C10.8265 2.33424 10.7504 2.17527 10.6151 2.05806C10.4797 1.94085 10.2961 1.875 10.1047 1.875ZM5.23279 6.35312C4.95849 6.49028 4.64732 6.56249 4.33057 6.5625C4.01383 6.56251 3.70266 6.49032 3.42834 6.35318C3.15402 6.21605 2.92623 6.0188 2.76785 5.78127C2.60947 5.54373 2.52609 5.27428 2.52609 5C2.52609 4.72572 2.60947 4.45627 2.76785 4.21873C2.92623 3.9812 3.15402 3.78395 3.42834 3.64682C3.70266 3.50968 4.01383 3.43749 4.33057 3.4375C4.64732 3.43751 4.95849 3.50972 5.23279 3.64688C5.27514 3.66679 5.31245 3.69385 5.34253 3.72645C5.37261 3.75905 5.39485 3.79655 5.40792 3.83671C5.421 3.87688 5.42465 3.9189 5.41866 3.96031C5.41268 4.00172 5.39718 4.04167 5.37307 4.0778C5.34897 4.11394 5.31675 4.14553 5.27832 4.17071C5.23989 4.19589 5.19602 4.21414 5.14931 4.2244C5.1026 4.23467 5.05399 4.23672 5.00634 4.23045C4.9587 4.22418 4.91299 4.20971 4.87191 4.18789C4.70732 4.10569 4.52064 4.06244 4.33064 4.0625C4.14064 4.06256 3.954 4.10591 3.78947 4.18821C3.62495 4.2705 3.48833 4.38884 3.39335 4.53134C3.29836 4.67384 3.24836 4.83547 3.24836 5C3.24836 5.16453 3.29836 5.32616 3.39335 5.46866C3.48833 5.61116 3.62495 5.7295 3.78947 5.81179C3.954 5.89409 4.14064 5.93744 4.33064 5.9375C4.52064 5.93756 4.70732 5.89431 4.87191 5.81211C4.95457 5.77324 5.0515 5.76385 5.14203 5.78596C5.23257 5.80806 5.30957 5.85989 5.35662 5.93043C5.40367 6.00096 5.41705 6.08462 5.39392 6.16357C5.37079 6.24253 5.31298 6.31054 5.23279 6.35312ZM8.84161 6.35312C8.5673 6.49028 8.25614 6.56249 7.93939 6.5625C7.62265 6.56251 7.31147 6.49032 7.03716 6.35318C6.76284 6.21605 6.53505 6.0188 6.37667 5.78127C6.21829 5.54373 6.13491 5.27428 6.13491 5C6.13491 4.72572 6.21829 4.45627 6.37667 4.21873C6.53505 3.9812 6.76284 3.78395 7.03716 3.64682C7.31147 3.50968 7.62265 3.43749 7.93939 3.4375C8.25614 3.43751 8.5673 3.50972 8.84161 3.64688C8.88396 3.66679 8.92127 3.69385 8.95135 3.72645C8.98143 3.75905 9.00367 3.79655 9.01674 3.83671C9.02982 3.87688 9.03347 3.9189 9.02748 3.96031C9.0215 4.00172 9.006 4.04167 8.98189 4.0778C8.95779 4.11394 8.92557 4.14553 8.88714 4.17071C8.84871 4.19589 8.80484 4.21414 8.75813 4.2244C8.71142 4.23467 8.66281 4.23672 8.61516 4.23045C8.56752 4.22418 8.52181 4.20971 8.48073 4.18789C8.31614 4.10569 8.12946 4.06244 7.93946 4.0625C7.74946 4.06256 7.56282 4.10591 7.39829 4.18821C7.23377 4.2705 7.09715 4.38884 7.00217 4.53134C6.90718 4.67384 6.85718 4.83547 6.85718 5C6.85718 5.16453 6.90718 5.32616 7.00217 5.46866C7.09715 5.61116 7.23377 5.7295 7.39829 5.81179C7.56282 5.89409 7.74946 5.93744 7.93946 5.9375C8.12946 5.93756 8.31614 5.89431 8.48073 5.81211C8.56339 5.77324 8.66032 5.76385 8.75085 5.78596C8.84139 5.80806 8.91839 5.85989 8.96544 5.93043C9.01249 6.00096 9.02587 6.08462 9.00274 6.16357C8.97961 6.24253 8.9218 6.31054 8.84161 6.35312Z" fill="var(--fill-0, black)"/>
</g>
</svg>
