<svg preserveAspectRatio="none" width="100%" height="100%" overflow="visible" style="display: block;" viewBox="0 0 24 24" fill="none" xmlns="http://www.w3.org/2000/svg">
<g id="CornersOut">
<path id="Vector" d="M8.78063 18.9694C8.88563 19.0743 8.95716 19.208 8.98615 19.3535C9.01513 19.4991 9.00028 19.65 8.94347 19.7871C8.88665 19.9242 8.79043 20.0414 8.66699 20.1238C8.54354 20.2062 8.39842 20.2501 8.25 20.25H4.5C4.30109 20.25 4.11032 20.171 3.96967 20.0303C3.82902 19.8897 3.75 19.6989 3.75 19.5V15.75C3.74988 15.6016 3.79381 15.4565 3.87621 15.333C3.95861 15.2096 4.07579 15.1133 4.21291 15.0565C4.35002 14.9997 4.50092 14.9849 4.64648 15.0139C4.79204 15.0428 4.92573 15.1144 5.03062 15.2194L8.78063 18.9694ZM8.25 3.75H4.5C4.30109 3.75 4.11032 3.82902 3.96967 3.96967C3.82902 4.11032 3.75 4.30109 3.75 4.5V8.25C3.74988 8.39842 3.79381 8.54354 3.87621 8.66699C3.95861 8.79043 4.07579 8.88665 4.21291 8.94347C4.35002 9.00028 4.50092 9.01513 4.64648 8.98615C4.79204 8.95716 4.92573 8.88563 5.03062 8.78063L8.78063 5.03062C8.88563 4.92573 8.95716 4.79204 8.98615 4.64648C9.01513 4.50092 9.00028 4.35002 8.94347 4.21291C8.88665 4.07579 8.79043 3.95861 8.66699 3.87621C8.54354 3.79381 8.39842 3.74988 8.25 3.75ZM19.7869 15.0572C19.6498 15.0003 19.499 14.9854 19.3535 15.0143C19.208 15.0431 19.0743 15.1145 18.9694 15.2194L15.2194 18.9694C15.1144 19.0743 15.0428 19.208 15.0139 19.3535C14.9849 19.4991 14.9997 19.65 15.0565 19.7871C15.1133 19.9242 15.2096 20.0414 15.333 20.1238C15.4565 20.2062 15.6016 20.2501 15.75 20.25H19.5C19.6989 20.25 19.8897 20.171 20.0303 20.0303C20.171 19.8897 20.25 19.6989 20.25 19.5V15.75C20.25 15.6017 20.206 15.4567 20.1235 15.3334C20.0411 15.21 19.9239 15.1139 19.7869 15.0572ZM19.5 3.75H15.75C15.6016 3.74988 15.4565 3.79381 15.333 3.87621C15.2096 3.95861 15.1133 4.07579 15.0565 4.21291C14.9997 4.35002 14.9849 4.50092 15.0139 4.64648C15.0428 4.79204 15.1144 4.92573 15.2194 5.03062L18.9694 8.78063C19.0743 8.88563 19.208 8.95716 19.3535 8.98615C19.4991 9.01513 19.65 9.00028 19.7871 8.94347C19.9242 8.88665 20.0414 8.79043 20.1238 8.66699C20.2062 8.54354 20.2501 8.39842 20.25 8.25V4.5C20.25 4.30109 20.171 4.11032 20.0303 3.96967C19.8897 3.82902 19.6989 3.75 19.5 3.75Z" fill="var(--fill-0, black)"/>
</g>
</svg>
