<svg preserveAspectRatio="none" width="100%" height="100%" overflow="visible" style="display: block;" viewBox="0 0 14 14" fill="none" xmlns="http://www.w3.org/2000/svg">
<g id="MusicNote">
<path id="Vector" d="M11.5008 3.08109L7.12578 1.76859C7.06046 1.74899 6.99146 1.74492 6.92429 1.75672C6.85712 1.76852 6.79364 1.79586 6.73892 1.83656C6.6842 1.87726 6.63974 1.93019 6.60911 1.99112C6.57848 2.05205 6.56252 2.1193 6.5625 2.1875V8.10797C6.11445 7.70722 5.54243 7.47239 4.94203 7.44273C4.34164 7.41306 3.74926 7.59036 3.26389 7.945C2.77851 8.29963 2.42956 8.81011 2.27535 9.39111C2.12114 9.97212 2.17101 10.5885 2.41663 11.1371C2.66225 11.6858 3.08874 12.1335 3.62481 12.4055C4.16089 12.6775 4.77407 12.7572 5.36188 12.6314C5.94969 12.5056 6.47652 12.1818 6.85431 11.7143C7.2321 11.2467 7.43796 10.6636 7.4375 10.0625V5.40039L11.2492 6.54391C11.3145 6.56351 11.3835 6.56758 11.4507 6.55578C11.5179 6.54398 11.5814 6.51664 11.6361 6.47594C11.6908 6.43524 11.7353 6.38231 11.7659 6.32138C11.7965 6.26045 11.8125 6.1932 11.8125 6.125V3.5C11.8125 3.40594 11.7821 3.3144 11.726 3.23894C11.6698 3.16349 11.5909 3.10813 11.5008 3.08109Z" fill="var(--fill-0, black)"/>
</g>
</svg>
