<svg preserveAspectRatio="none" width="100%" height="100%" overflow="visible" style="display: block;" viewBox="0 0 13.7856 13.7856" fill="none" xmlns="http://www.w3.org/2000/svg">
<g id="Video">
<path id="Vector" d="M12.4932 11.2008C12.4932 11.3151 12.4478 11.4247 12.367 11.5054C12.2863 11.5862 12.1767 11.6316 12.0624 11.6316H1.7232C1.60895 11.6316 1.49937 11.5862 1.41858 11.5054C1.33779 11.4247 1.2924 11.3151 1.2924 11.2008C1.2924 11.0866 1.33779 10.977 1.41858 10.8962C1.49937 10.8154 1.60895 10.77 1.7232 10.77H12.0624C12.1767 10.77 12.2863 10.8154 12.367 10.8962C12.4478 10.977 12.4932 11.0866 12.4932 11.2008ZM12.4932 3.01561V9.04682C12.4932 9.27533 12.4024 9.49448 12.2409 9.65606C12.0793 9.81764 11.8601 9.90842 11.6316 9.90842H2.154C1.92549 9.90842 1.70634 9.81764 1.54476 9.65606C1.38318 9.49448 1.2924 9.27533 1.2924 9.04682V3.01561C1.2924 2.78709 1.38318 2.56794 1.54476 2.40636C1.70634 2.24478 1.92549 2.154 2.154 2.154H11.6316C11.8601 2.154 12.0793 2.24478 12.2409 2.40636C12.4024 2.56794 12.4932 2.78709 12.4932 3.01561ZM8.83142 6.03121C8.8314 5.96199 8.8147 5.8938 8.78273 5.8324C8.75077 5.771 8.70448 5.71821 8.64779 5.67849L6.49378 4.17069C6.42924 4.12547 6.35352 4.09883 6.27489 4.09366C6.19625 4.08848 6.1177 4.10498 6.04778 4.14136C5.97787 4.17773 5.91927 4.23258 5.87837 4.29994C5.83747 4.36731 5.81583 4.4446 5.81581 4.52341V7.53901C5.81583 7.61782 5.83747 7.69511 5.87837 7.76248C5.91927 7.82984 5.97787 7.88469 6.04778 7.92107C6.1177 7.95744 6.19625 7.97394 6.27489 7.96877C6.35352 7.96359 6.42924 7.93695 6.49378 7.89173L8.64779 6.38393C8.70448 6.34421 8.75077 6.29142 8.78273 6.23002C8.8147 6.16863 8.8314 6.10043 8.83142 6.03121Z" fill="var(--fill-0, black)"/>
</g>
</svg>
